<mxfile host="app.diagrams.net" modified="2022-08-02T13:01:56.901Z" agent="5.0 (Windows NT 10.0; Win64; x64) AppleWebKit/537.36 (KHTML, like Gecko) Chrome/103.0.0.0 Safari/537.36" etag="hMLHl8u4drdS-tyKIjho" version="20.2.2" type="github">
  <diagram id="C3n2u9p28RJBCAid8Xp9" name="Page-1">
    <mxGraphModel dx="1422" dy="-407" grid="1" gridSize="10" guides="1" tooltips="1" connect="1" arrows="1" fold="1" page="1" pageScale="1" pageWidth="827" pageHeight="1169" math="0" shadow="0">
      <root>
        <mxCell id="0" />
        <mxCell id="1" parent="0" />
        <mxCell id="iOJ-4KOOphPzWoxPUmpx-9" value="Azure" style="rounded=1;whiteSpace=wrap;html=1;dashed=1;verticalAlign=top;" vertex="1" parent="1">
          <mxGeometry x="270" y="1430" width="200" height="550" as="geometry" />
        </mxCell>
        <mxCell id="iOJ-4KOOphPzWoxPUmpx-8" value="Crown Hosting" style="rounded=1;whiteSpace=wrap;html=1;dashed=1;verticalAlign=top;" vertex="1" parent="1">
          <mxGeometry y="1510" width="200" height="470" as="geometry" />
        </mxCell>
        <mxCell id="xMmDxgA52zjlr51yU6Mr-22" value="Future Farming" style="rounded=1;whiteSpace=wrap;html=1;verticalAlign=top;" parent="1" vertex="1">
          <mxGeometry x="290" y="1466" width="160" height="500" as="geometry" />
        </mxCell>
        <mxCell id="xMmDxgA52zjlr51yU6Mr-1" value="Sandpit&lt;br&gt;DefraCloudDev" style="rounded=1;whiteSpace=wrap;html=1;" parent="1" vertex="1">
          <mxGeometry x="310" y="1496" width="120" height="60" as="geometry" />
        </mxCell>
        <mxCell id="iOJ-4KOOphPzWoxPUmpx-19" style="edgeStyle=orthogonalEdgeStyle;rounded=0;orthogonalLoop=1;jettySize=auto;html=1;entryX=0;entryY=0.5;entryDx=0;entryDy=0;dashed=1;dashPattern=1 1;endArrow=none;endFill=0;" edge="1" parent="1" source="xMmDxgA52zjlr51yU6Mr-2" target="iOJ-4KOOphPzWoxPUmpx-18">
          <mxGeometry relative="1" as="geometry" />
        </mxCell>
        <mxCell id="xMmDxgA52zjlr51yU6Mr-2" value="Development&lt;br&gt;DefraCloudDev" style="rounded=1;whiteSpace=wrap;html=1;" parent="1" vertex="1">
          <mxGeometry x="310" y="1576" width="120" height="60" as="geometry" />
        </mxCell>
        <mxCell id="iOJ-4KOOphPzWoxPUmpx-21" style="edgeStyle=orthogonalEdgeStyle;rounded=0;orthogonalLoop=1;jettySize=auto;html=1;entryX=0;entryY=0.5;entryDx=0;entryDy=0;dashed=1;dashPattern=1 1;endArrow=none;endFill=0;" edge="1" parent="1" source="xMmDxgA52zjlr51yU6Mr-3" target="iOJ-4KOOphPzWoxPUmpx-20">
          <mxGeometry relative="1" as="geometry" />
        </mxCell>
        <mxCell id="xMmDxgA52zjlr51yU6Mr-3" value="Test&lt;br&gt;DefraCloudDev" style="rounded=1;whiteSpace=wrap;html=1;" parent="1" vertex="1">
          <mxGeometry x="310" y="1656" width="120" height="60" as="geometry" />
        </mxCell>
        <mxCell id="xMmDxgA52zjlr51yU6Mr-4" value="Train&lt;br&gt;DefraCloudPreProd" style="rounded=1;whiteSpace=wrap;html=1;" parent="1" vertex="1">
          <mxGeometry x="310" y="1736" width="120" height="60" as="geometry" />
        </mxCell>
        <mxCell id="iOJ-4KOOphPzWoxPUmpx-23" style="edgeStyle=orthogonalEdgeStyle;rounded=0;orthogonalLoop=1;jettySize=auto;html=1;dashed=1;dashPattern=1 1;endArrow=none;endFill=0;" edge="1" parent="1" source="xMmDxgA52zjlr51yU6Mr-5" target="iOJ-4KOOphPzWoxPUmpx-22">
          <mxGeometry relative="1" as="geometry" />
        </mxCell>
        <mxCell id="xMmDxgA52zjlr51yU6Mr-5" value="Pre-Production&lt;br&gt;DefraCloudPreProd" style="rounded=1;whiteSpace=wrap;html=1;" parent="1" vertex="1">
          <mxGeometry x="310" y="1816" width="120" height="60" as="geometry" />
        </mxCell>
        <mxCell id="iOJ-4KOOphPzWoxPUmpx-25" style="edgeStyle=orthogonalEdgeStyle;rounded=0;orthogonalLoop=1;jettySize=auto;html=1;dashed=1;dashPattern=1 1;endArrow=none;endFill=0;" edge="1" parent="1" source="xMmDxgA52zjlr51yU6Mr-6" target="iOJ-4KOOphPzWoxPUmpx-24">
          <mxGeometry relative="1" as="geometry" />
        </mxCell>
        <mxCell id="xMmDxgA52zjlr51yU6Mr-6" value="Production&lt;br&gt;DefraCloudProduction" style="rounded=1;whiteSpace=wrap;html=1;" parent="1" vertex="1">
          <mxGeometry x="310" y="1896" width="120" height="60" as="geometry" />
        </mxCell>
        <mxCell id="iOJ-4KOOphPzWoxPUmpx-1" value="Data Warehouse" style="rounded=1;whiteSpace=wrap;html=1;verticalAlign=top;" vertex="1" parent="1">
          <mxGeometry x="20" y="1550" width="160" height="416" as="geometry" />
        </mxCell>
        <mxCell id="iOJ-4KOOphPzWoxPUmpx-11" style="edgeStyle=orthogonalEdgeStyle;rounded=0;orthogonalLoop=1;jettySize=auto;html=1;" edge="1" parent="1" source="iOJ-4KOOphPzWoxPUmpx-3" target="xMmDxgA52zjlr51yU6Mr-2">
          <mxGeometry relative="1" as="geometry" />
        </mxCell>
        <mxCell id="iOJ-4KOOphPzWoxPUmpx-3" value="?" style="rounded=1;whiteSpace=wrap;html=1;" vertex="1" parent="1">
          <mxGeometry x="40" y="1576" width="120" height="60" as="geometry" />
        </mxCell>
        <mxCell id="iOJ-4KOOphPzWoxPUmpx-12" style="edgeStyle=orthogonalEdgeStyle;rounded=0;orthogonalLoop=1;jettySize=auto;html=1;" edge="1" parent="1" source="iOJ-4KOOphPzWoxPUmpx-4" target="xMmDxgA52zjlr51yU6Mr-3">
          <mxGeometry relative="1" as="geometry" />
        </mxCell>
        <mxCell id="iOJ-4KOOphPzWoxPUmpx-4" value="?" style="rounded=1;whiteSpace=wrap;html=1;" vertex="1" parent="1">
          <mxGeometry x="40" y="1656" width="120" height="60" as="geometry" />
        </mxCell>
        <mxCell id="iOJ-4KOOphPzWoxPUmpx-14" style="edgeStyle=orthogonalEdgeStyle;rounded=0;orthogonalLoop=1;jettySize=auto;html=1;" edge="1" parent="1" source="iOJ-4KOOphPzWoxPUmpx-6" target="xMmDxgA52zjlr51yU6Mr-5">
          <mxGeometry relative="1" as="geometry" />
        </mxCell>
        <mxCell id="iOJ-4KOOphPzWoxPUmpx-6" value="?" style="rounded=1;whiteSpace=wrap;html=1;" vertex="1" parent="1">
          <mxGeometry x="40" y="1816" width="120" height="60" as="geometry" />
        </mxCell>
        <mxCell id="iOJ-4KOOphPzWoxPUmpx-15" style="edgeStyle=orthogonalEdgeStyle;rounded=0;orthogonalLoop=1;jettySize=auto;html=1;" edge="1" parent="1" source="iOJ-4KOOphPzWoxPUmpx-7" target="xMmDxgA52zjlr51yU6Mr-6">
          <mxGeometry relative="1" as="geometry" />
        </mxCell>
        <mxCell id="iOJ-4KOOphPzWoxPUmpx-7" value="?" style="rounded=1;whiteSpace=wrap;html=1;" vertex="1" parent="1">
          <mxGeometry x="40" y="1896" width="120" height="60" as="geometry" />
        </mxCell>
        <mxCell id="iOJ-4KOOphPzWoxPUmpx-18" value="PostgreSQL Server: devffcdbssq1002.postgres.database.azure.com&lt;br&gt;PostgreSQL Database: ffc-pay-statement-data-dev" style="rounded=0;whiteSpace=wrap;html=1;dashed=1;dashPattern=1 2;align=left;verticalAlign=top;" vertex="1" parent="1">
          <mxGeometry x="530" y="1586" width="390" height="40" as="geometry" />
        </mxCell>
        <mxCell id="iOJ-4KOOphPzWoxPUmpx-20" value="PostgreSQL Server: devffcdbssq1002.postgres.database.azure.com&lt;br&gt;PostgreSQL Database: ffc-pay-statement-data-test" style="rounded=0;whiteSpace=wrap;html=1;dashed=1;dashPattern=1 2;align=left;verticalAlign=top;" vertex="1" parent="1">
          <mxGeometry x="530" y="1666" width="390" height="40" as="geometry" />
        </mxCell>
        <mxCell id="iOJ-4KOOphPzWoxPUmpx-22" value="PostgreSQL Server: preffcdbssq1002.postgres.database.azure.com&lt;br&gt;PostgreSQL Database: ffc-pay-statement-data-pre" style="rounded=0;whiteSpace=wrap;html=1;dashed=1;dashPattern=1 2;align=left;verticalAlign=top;" vertex="1" parent="1">
          <mxGeometry x="530" y="1826" width="390" height="40" as="geometry" />
        </mxCell>
        <mxCell id="iOJ-4KOOphPzWoxPUmpx-24" value="PostgreSQL Server: prdffcdbssq1002.postgres.database.azure.com&lt;br&gt;PostgreSQL Database: ffc-pay-statement-data-prd" style="rounded=0;whiteSpace=wrap;html=1;dashed=1;dashPattern=1 2;align=left;verticalAlign=top;" vertex="1" parent="1">
          <mxGeometry x="530" y="1906" width="390" height="40" as="geometry" />
        </mxCell>
      </root>
    </mxGraphModel>
  </diagram>
</mxfile>
